<?xml version="1.0" encoding="UTF-8"?>
<svg version="1.1" xmlns="http://www.w3.org/2000/svg" width="207" height="49">
<path d="M0 0 C68.31 0 136.62 0 207 0 C207 16.17 207 32.34 207 49 C138.69 49 70.38 49 0 49 C0 32.83 0 16.66 0 0 Z " fill="#FBFBFB" transform="translate(0,0)"/>
<path d="M0 0 C0.99 0.33 1.98 0.66 3 1 C2.67 4.63 2.34 8.26 2 12 C2.66 12 3.32 12 4 12 C4 10.35 4 8.7 4 7 C6.64 7 9.28 7 12 7 C13.05619003 11.28297531 13.11702092 15.42985646 13.0625 19.8125 C13.05798828 20.50537109 13.05347656 21.19824219 13.04882812 21.91210938 C13.03713156 23.60811068 13.01919924 25.30406703 13 27 C11.82630859 26.98259766 11.82630859 26.98259766 10.62890625 26.96484375 C9.61699219 26.95582031 8.60507812 26.94679688 7.5625 26.9375 C6.55316406 26.92589844 5.54382813 26.91429688 4.50390625 26.90234375 C2.05978933 26.71387324 2.05978933 26.71387324 1 28 C-2.6691577 28.14310287 -6.32715441 28.04221662 -10 28 C-10 22.72 -10 17.44 -10 12 C-9.34 12 -8.68 12 -8 12 C-8 10.35 -8 8.7 -8 7 C-5.36 7 -2.72 7 0 7 C0 4.69 0 2.38 0 0 Z " fill="#FCFCFC" transform="translate(28,16)"/>
<path d="M0 0 C2.73762749 0.17662113 3.77712083 0.76886605 5.6875 2.75 C7.11211469 5.19219662 7.61312661 7.2145116 8 10 C8.23074219 9.36191406 8.46148437 8.72382813 8.69921875 8.06640625 C9.67450112 5.59543393 10.64838308 3.28868041 12 1 C14.75 -0.0625 14.75 -0.0625 17 0 C22.30011407 7.14363201 21.14267283 16.51889316 21 25 C19.35 25 17.7 25 16 25 C15.67 20.38 15.34 15.76 15 11 C12.99706653 14.00440021 12.50728374 15.70993945 11.875 19.1875 C11.62363281 20.53908203 11.62363281 20.53908203 11.3671875 21.91796875 C11.24601562 22.60503906 11.12484375 23.29210937 11 24 C9.35 24 7.7 24 6 24 C4.68 18.72 3.36 13.44 2 8 C1.67 13.61 1.34 19.22 1 25 C-0.65 25 -2.3 25 -4 25 C-4.05413245 22.10391407 -4.09373641 19.20884805 -4.125 16.3125 C-4.14175781 15.49587891 -4.15851562 14.67925781 -4.17578125 13.83789062 C-4.21123829 9.45894667 -4.15547121 5.94164841 -2 2 C-1.34 1.34 -0.68 0.68 0 0 Z " fill="#101010" transform="translate(59,15)"/>
<path d="M0 0 C2.97 0 5.94 0 9 0 C9.92538169 3.70152678 10.08174162 4.63458162 9 8 C10.7015625 7.9690625 10.7015625 7.9690625 12.4375 7.9375 C16 8 16 8 17 9 C17.09946453 10.76859193 17.13080217 12.54111451 17.1328125 14.3125 C17.13474609 15.92511719 17.13474609 15.92511719 17.13671875 17.5703125 C17.13285156 18.70210937 17.12898438 19.83390625 17.125 21 C17.13080078 22.69769531 17.13080078 22.69769531 17.13671875 24.4296875 C17.13542969 25.50476563 17.13414063 26.57984375 17.1328125 27.6875 C17.13168457 28.68136719 17.13055664 29.67523438 17.12939453 30.69921875 C17 33 17 33 16 34 C13.66666667 34.33333333 11.33333333 34.66666667 9 35 C8.505 35.495 8.505 35.495 8 36 C5.81360547 36.07258946 3.62499611 36.08373783 1.4375 36.0625 C-0.35880859 36.04896484 -0.35880859 36.04896484 -2.19140625 36.03515625 C-3.11824219 36.02355469 -4.04507812 36.01195312 -5 36 C-5 32.7 -5 29.4 -5 26 C-4.67 26 -4.34 26 -4 26 C-4 28.97 -4 31.94 -4 35 C-2.68 35 -1.36 35 0 35 C0 32.03 0 29.06 0 26 C0.33 26 0.66 26 1 26 C1 28.97 1 31.94 1 35 C2.98 35 4.96 35 7 35 C7 30.05 7 25.1 7 20 C6.34 19.67 5.68 19.34 5 19 C5.33 17.68 5.66 16.36 6 15 C4.68 15 3.36 15 2 15 C2 16.65 2 18.3 2 20 C1.67 20 1.34 20 1 20 C1 18.35 1 16.7 1 15 C0.01 15 -0.98 15 -2 15 C-2 16.65 -2 18.3 -2 20 C-2.66 20 -3.32 20 -4 20 C-4 16.37 -4 12.74 -4 9 C-3.34 9 -2.68 9 -2 9 C-2 10.65 -2 12.3 -2 14 C-1.01 14 -0.02 14 1 14 C1 12.35 1 10.7 1 9 C1.33 9 1.66 9 2 9 C2 10.65 2 12.3 2 14 C3.32 14 4.64 14 6 14 C5.67 12.35 5.34 10.7 5 9 C5.66 9 6.32 9 7 9 C7 7.68 7 6.36 7 5 C4.69 5 2.38 5 0 5 C0 3.35 0 1.7 0 0 Z " fill="#919191" transform="translate(34,8)"/>
<path d="M0 0 C1.65 0 3.3 0 5 0 C5 8.25 5 16.5 5 25 C-7.42027027 25.36891892 -7.42027027 25.36891892 -9.890625 23.796875 C-12.11212213 20.19867543 -11.58417817 16.05605523 -11 12 C-9.4375 9.375 -9.4375 9.375 -7 8 C-3.25 7.75 -3.25 7.75 0 8 C0 5.36 0 2.72 0 0 Z " fill="#131313" transform="translate(113,15)"/>
<path d="M0 0 C0.33 0 0.66 0 1 0 C1 1.65 1 3.3 1 5 C1.66 5 2.32 5 3 5 C3 6.65 3 8.3 3 10 C3.99 10 4.98 10 6 10 C6 8.35 6 6.7 6 5 C6.33 5 6.66 5 7 5 C7 6.65 7 8.3 7 10 C8.32 10 9.64 10 11 10 C11 8.35 11 6.7 11 5 C11.33 5 11.66 5 12 5 C12 8.63 12 12.26 12 16 C11.67 16 11.34 16 11 16 C11 14.35 11 12.7 11 11 C9.68 11 8.36 11 7 11 C7 12.65 7 14.3 7 16 C6.67 16 6.34 16 6 16 C6 14.35 6 12.7 6 11 C5.01 11 4.02 11 3 11 C3 12.65 3 14.3 3 16 C2.34 16 1.68 16 1 16 C1 21.28 1 26.56 1 32 C0.67 31.34 0.34 30.68 0 30 C-2.64 30 -5.28 30 -8 30 C-8.19583915 25.85451585 -8.38027842 21.7086033 -8.5625 17.5625 C-8.61857422 16.37849609 -8.67464844 15.19449219 -8.73242188 13.97460938 C-8.78076172 12.84990234 -8.82910156 11.72519531 -8.87890625 10.56640625 C-8.9260376 9.52427979 -8.97316895 8.48215332 -9.02172852 7.40844727 C-9 5 -9 5 -8 4 C-5.32941149 3.85884839 -2.67567762 3.95752893 0 4 C0 2.68 0 1.36 0 0 Z " fill="#777777" transform="translate(17,12)"/>
<path d="M0 0 C3.4375 1.5 3.4375 1.5 6 3 C5.34 4.65 4.68 6.3 4 8 C3.46375 7.67 2.9275 7.34 2.375 7 C-0.5391061 5.77300796 -2.86867708 5.85766714 -6 6 C-6 6.66 -6 7.32 -6 8 C-5.30132812 8.33773438 -4.60265625 8.67546875 -3.8828125 9.0234375 C-2.97273437 9.46945313 -2.06265625 9.91546875 -1.125 10.375 C-0.22007812 10.81585938 0.68484375 11.25671875 1.6171875 11.7109375 C4 13 4 13 6 15 C6.45409879 18.48142404 6.39476404 20.34778115 4.5625 23.375 C0.76638104 25.78229495 -2.62444657 25.78593706 -7 25 C-9.34992899 23.88964659 -10.96919837 22.66629877 -13 21 C-12.34 19.35 -11.68 17.7 -11 16 C-10.505 16.474375 -10.01 16.94875 -9.5 17.4375 C-6.00531349 19.62167907 -3.09033064 19.65913911 1 20 C-0.00569333 17.38738362 -0.62458105 16.214325 -3.09375 14.8046875 C-3.8878125 14.49789063 -4.681875 14.19109375 -5.5 13.875 C-8.30805541 12.77183537 -9.84266036 12.15733964 -12 10 C-12.4375 7.125 -12.4375 7.125 -12 4 C-8.37433659 -0.17500635 -5.37702211 -0.66033605 0 0 Z " fill="#121212" transform="translate(141,15)"/>
<path d="M0 0 C2.9375 0.1875 2.9375 0.1875 3.9375 1.1875 C3.97842937 3.52047433 3.97991723 5.85455225 3.9375 8.1875 C6.2475 8.1875 8.5575 8.1875 10.9375 8.1875 C10.6075 11.1575 10.2775 14.1275 9.9375 17.1875 C7.2975 17.1875 4.6575 17.1875 1.9375 17.1875 C1.6075 15.5375 1.2775 13.8875 0.9375 12.1875 C-0.0525 11.8575 -1.0425 11.5275 -2.0625 11.1875 C-2.0625 13.1675 -2.0625 15.1475 -2.0625 17.1875 C-4.7025 17.1875 -7.3425 17.1875 -10.0625 17.1875 C-10.0625 15.5375 -10.0625 13.8875 -10.0625 12.1875 C-10.7225 12.1875 -11.3825 12.1875 -12.0625 12.1875 C-12.0625 10.5375 -12.0625 8.8875 -12.0625 7.1875 C-13.0525 6.8575 -14.0425 6.5275 -15.0625 6.1875 C-13.0625 3.1875 -13.0625 3.1875 -11.1875 2.74609375 C-10.135625 2.68615234 -10.135625 2.68615234 -9.0625 2.625 C-5.12404706 2.38608649 -3.82418686 0.23413389 0 0 Z " fill="#CECECE" transform="translate(30.0625,4.8125)"/>
<path d="M0 0 C3.5060303 0.86943897 4.94966563 2.56083702 6.9375 5.48046875 C7.7253128 9.89222045 7.46725133 11.70239649 4.9375 15.41796875 C0.78669686 18.27164591 -1.0926078 18.19045335 -6.0625 17.48046875 C-9.40675629 14.90796391 -10.87949852 12.85297982 -11.4375 8.66796875 C-11.0625 5.48046875 -11.0625 5.48046875 -9.0625 2.60546875 C-5.72064571 0.23832196 -4.00209545 -0.28044987 0 0 Z " fill="#101010" transform="translate(173.0625,22.51953125)"/>
<path d="M0 0 C2.55763393 0.61785539 3.54757233 1.38305329 5.0859375 3.50390625 C4.7734375 6.69140625 4.7734375 6.69140625 4.0859375 9.50390625 C-0.3690625 10.98890625 -0.3690625 10.98890625 -4.9140625 12.50390625 C-0.4590625 12.00890625 -0.4590625 12.00890625 4.0859375 11.50390625 C4.4159375 12.82390625 4.7459375 14.14390625 5.0859375 15.50390625 C1.39510235 17.96446302 -2.62915441 18.326948 -6.9140625 17.50390625 C-10.3219115 15.09001321 -11.66703585 13.66493149 -12.5390625 9.56640625 C-10.98446186 1.94886311 -7.26165134 -0.18587845 0 0 Z " fill="#111111" transform="translate(93.9140625,22.49609375)"/>
<path d="M0 0 C1.65 0 3.3 0 5 0 C4.67 1.98 4.34 3.96 4 6 C5.65 6 7.3 6 9 6 C9 7.32 9 8.64 9 10 C7.35 10 5.7 10 4 10 C4 12.64 4 15.28 4 18 C5.32 17.67 6.64 17.34 8 17 C8.625 18.875 8.625 18.875 9 21 C7 23 7 23 4 23.25 C1 23 1 23 -1 21 C-1.1953125 18.6171875 -1.1953125 18.6171875 -1.125 15.875 C-1.10695312 14.96492188 -1.08890625 14.05484375 -1.0703125 13.1171875 C-1.04710937 12.41851562 -1.02390625 11.71984375 -1 11 C-2.32 11 -3.64 11 -5 11 C-5 9.35 -5 7.7 -5 6 C-3.35 6 -1.7 6 0 6 C0 4.02 0 2.04 0 0 Z " fill="#101010" transform="translate(187,17)"/>
<path d="M0 0 C1.65 0 3.3 0 5 0 C4.67 6.6 4.34 13.2 4 20 C5.32 19.67 6.64 19.34 8 19 C8.625 20.875 8.625 20.875 9 23 C7 25 7 25 4.5625 25.375 C2 25 2 25 0.36035156 23.2722168 C-1.19603352 20.67256211 -1.36274127 19.27189583 -1.328125 16.26953125 C-1.32296875 15.38458984 -1.3178125 14.49964844 -1.3125 13.58789062 C-1.291875 12.67201172 -1.27125 11.75613281 -1.25 10.8125 C-1.24484375 9.88501953 -1.2396875 8.95753906 -1.234375 8.00195312 C-1.15422604 1.15422604 -1.15422604 1.15422604 0 0 Z " fill="#131313" transform="translate(151,15)"/>
<path d="M0 0 C2.31 0 4.62 0 7 0 C7 6.6 7 13.2 7 20 C4.69 20 2.38 20 0 20 C0 13.4 0 6.8 0 0 Z " fill="#7B7B7B" transform="translate(10,20)"/>
<path d="M0 0 C1.98 0 3.96 0 6 0 C6 6.6 6 13.2 6 20 C3.69 20 1.38 20 -1 20 C-1.02888514 16.85418577 -1.04675923 13.70840531 -1.0625 10.5625 C-1.07087891 9.66466797 -1.07925781 8.76683594 -1.08789062 7.84179688 C-1.09111328 6.98779297 -1.09433594 6.13378906 -1.09765625 5.25390625 C-1.10551147 4.06776733 -1.10551147 4.06776733 -1.11352539 2.85766602 C-1 1 -1 1 0 0 Z " fill="#CBCBCB" transform="translate(43,20)"/>
<path d="M0 0 C2.57161458 0.03255208 5.14322917 0.06510417 7.71484375 0.09765625 C7.38484375 3.39765625 7.05484375 6.69765625 6.71484375 10.09765625 C3.0409688 10.95064001 -0.32989555 11.20555096 -4.09765625 11.16015625 C-5.56138672 11.14662109 -5.56138672 11.14662109 -7.0546875 11.1328125 C-8.15876953 11.11541016 -8.15876953 11.11541016 -9.28515625 11.09765625 C-9.28515625 10.76765625 -9.28515625 10.43765625 -9.28515625 10.09765625 C-7.30515625 10.09765625 -5.32515625 10.09765625 -3.28515625 10.09765625 C-3.29675781 9.45957031 -3.30835938 8.82148437 -3.3203125 8.1640625 C-3.32933594 7.33777344 -3.33835937 6.51148438 -3.34765625 5.66015625 C-3.35925781 4.83644531 -3.37085938 4.01273438 -3.3828125 3.1640625 C-3.24381204 0.22281267 -2.9444484 0.12583113 0 0 Z " fill="#919191" transform="translate(27.28515625,32.90234375)"/>
<path d="M0 0 C1.65 0 3.3 0 5 0 C5 5.61 5 11.22 5 17 C3.35 17 1.7 17 0 17 C0 11.39 0 5.78 0 0 Z " fill="#0F0F0F" transform="translate(120,23)"/>
<path d="M0 0 C3.3125 -0.25 3.3125 -0.25 7 0 C8.9375 1.6875 8.9375 1.6875 10 4 C10.1875 6.75 10.1875 6.75 10 9 C7.36 9 4.72 9 2 9 C2 7.35 2 5.7 2 4 C1.34 4 0.68 4 0 4 C0 2.68 0 1.36 0 0 Z " fill="#D7D7D7" transform="translate(18,13)"/>
<path d="M0 0 C0.33 0 0.66 0 1 0 C1 3.63 1 7.26 1 11 C3.31 11 5.62 11 8 11 C8.33 11.66 8.66 12.32 9 13 C7.2984375 13.2165625 7.2984375 13.2165625 5.5625 13.4375 C2.19222799 13.61171478 2.19222799 13.61171478 1 15 C-1.18639453 15.07258946 -3.37500389 15.08373783 -5.5625 15.0625 C-7.35880859 15.04896484 -7.35880859 15.04896484 -9.19140625 15.03515625 C-10.11824219 15.02355469 -11.04507812 15.01195312 -12 15 C-12 11.7 -12 8.4 -12 5 C-11.67 5 -11.34 5 -11 5 C-11 7.97 -11 10.94 -11 14 C-9.68 14 -8.36 14 -7 14 C-7 11.03 -7 8.06 -7 5 C-6.67 5 -6.34 5 -6 5 C-6 7.97 -6 10.94 -6 14 C-4.02 14 -2.04 14 0 14 C0 9.38 0 4.76 0 0 Z " fill="#7F7F7F" transform="translate(41,29)"/>
<path d="M0 0 C0.94875 0.04125 1.8975 0.0825 2.875 0.125 C2.875 1.115 2.875 2.105 2.875 3.125 C2.215 2.795 1.555 2.465 0.875 2.125 C0.875 2.785 0.875 3.445 0.875 4.125 C1.535 4.125 2.195 4.125 2.875 4.125 C2.875 5.115 2.875 6.105 2.875 7.125 C2.215 7.125 1.555 7.125 0.875 7.125 C0.875 7.785 0.875 8.445 0.875 9.125 C-0.115 9.125 -1.105 9.125 -2.125 9.125 C-2.125 8.465 -2.125 7.805 -2.125 7.125 C-3.445 7.125 -4.765 7.125 -6.125 7.125 C-6.125 6.135 -6.125 5.145 -6.125 4.125 C-8.435 4.125 -10.745 4.125 -13.125 4.125 C-13.125 3.795 -13.125 3.465 -13.125 3.125 C-11.84625 3.00125 -10.5675 2.8775 -9.25 2.75 C-5.29616658 2.36737096 -3.85839474 0.15433579 0 0 Z " fill="#8F8F8F" transform="translate(30.125,4.875)"/>
<path d="M0 0 C4.55555556 0.55555556 4.55555556 0.55555556 6 2 C6.1875 4.4375 6.1875 4.4375 6 7 C5.34 7.66 4.68 8.32 4 9 C-0.55555556 8.44444444 -0.55555556 8.44444444 -2 7 C-2.1875 4.5625 -2.1875 4.5625 -2 2 C-1.34 1.34 -0.68 0.68 0 0 Z " fill="#EEEEEE" transform="translate(169,27)"/>
<path d="M0 0 C2.31 0 4.62 0 7 0 C7 6.6 7 13.2 7 20 C4.69 20 2.38 20 0 20 C0 13.4 0 6.8 0 0 Z M1 1 C1 6.28 1 11.56 1 17 C2.65 17 4.3 17 6 17 C6 11.72 6 6.44 6 1 C4.35 1 2.7 1 1 1 Z " fill="#E0E0E0" transform="translate(10,20)"/>
<path d="M0 0 C2.625 0.375 2.625 0.375 5 1 C5.04254356 2.99954746 5.04080783 5.00041636 5 7 C4 8 4 8 1.5 8.125 C-1 8 -1 8 -2 7 C-2.1875 4.5625 -2.1875 4.5625 -2 2 C-1.34 1.34 -0.68 0.68 0 0 Z " fill="#EAEAEA" transform="translate(108,27)"/>
<path d="M0 0 C3.3 0 6.6 0 10 0 C10 0.99 10 1.98 10 3 C10.66 3 11.32 3 12 3 C12 3.66 12 4.32 12 5 C12.99 5.33 13.98 5.66 15 6 C14.01 6 13.02 6 12 6 C11.67 6.66 11.34 7.32 11 8 C10.34 7.01 9.68 6.02 9 5 C6.81494871 4.20562077 6.81494871 4.20562077 4.375 3.8125 C3.14910156 3.57466797 3.14910156 3.57466797 1.8984375 3.33203125 C1.27195312 3.22246094 0.64546875 3.11289063 0 3 C0 2.01 0 1.02 0 0 Z " fill="#B8B8B8" transform="translate(16,9)"/>
<path d="M0 0 C0 2.64 0 5.28 0 8 C-0.66 8 -1.32 8 -2 8 C-2.33 8.66 -2.66 9.32 -3 10 C-3.33 9.01 -3.66 8.02 -4 7 C-8.455 7.495 -8.455 7.495 -13 8 C-13.33 7.34 -13.66 6.68 -14 6 C-10.7 5.34 -7.4 4.68 -4 4 C-4 3.34 -4 2.68 -4 2 C-1 0 -1 0 0 0 Z " fill="#D9D9D9" transform="translate(102,28)"/>
<path d="M0 0 C2.64 0 5.28 0 8 0 C8 1.98 8 3.96 8 6 C5.03 6 2.06 6 -1 6 C-0.67 4.02 -0.34 2.04 0 0 Z " fill="#CECECE" transform="translate(20,23)"/>
<path d="M0 0 C2.64 0 5.28 0 8 0 C8 1.98 8 3.96 8 6 C5.03 6 2.06 6 -1 6 C-0.67 4.02 -0.34 2.04 0 0 Z " fill="#D8D8D8" transform="translate(32,23)"/>
<path d="M0 0 C2.0625 0.4375 2.0625 0.4375 4 1 C3.01 1 2.02 1 1 1 C1 1.99 1 2.98 1 4 C1.99 4.33 2.98 4.66 4 5 C3.01 5 2.02 5 1 5 C1 5.99 1 6.98 1 8 C1.99 7.67 2.98 7.34 4 7 C4 9.97 4 12.94 4 16 C2.68 15.67 1.36 15.34 0 15 C0.99 15 1.98 15 3 15 C3 14.34 3 13.68 3 13 C2.01 13 1.02 13 0 13 C0 12.34 0 11.68 0 11 C0.99 11 1.98 11 3 11 C3 10.34 3 9.68 3 9 C1.68 8.67 0.36 8.34 -1 8 C-1.04241723 5.66705225 -1.04092937 3.33297433 -1 1 C-0.67 0.67 -0.34 0.34 0 0 Z " fill="#787878" transform="translate(44,21)"/>
<path d="M0 0 C0.99 0.495 0.99 0.495 2 1 C2 3.31 2 5.62 2 8 C2.99 8.33 3.98 8.66 5 9 C5 9.66 5 10.32 5 11 C4.01 11 3.02 11 2 11 C2 11.66 2 12.32 2 13 C2.99 13 3.98 13 5 13 C5 13.66 5 14.32 5 15 C4.01 15.33 3.02 15.66 2 16 C1.34 16.99 0.68 17.98 0 19 C0 12.73 0 6.46 0 0 Z " fill="#BBBBBB" transform="translate(42,21)"/>
<path d="M0 0 C0.66 0 1.32 0 2 0 C2 1.65 2 3.3 2 5 C2.99 5 3.98 5 5 5 C5 3.35 5 1.7 5 0 C5.33 0 5.66 0 6 0 C6 1.65 6 3.3 6 5 C7.32 5.33 8.64 5.66 10 6 C8.68 6 7.36 6 6 6 C6 7.65 6 9.3 6 11 C5.67 11 5.34 11 5 11 C5 9.35 5 7.7 5 6 C4.01 6 3.02 6 2 6 C2 7.65 2 9.3 2 11 C1.34 11 0.68 11 0 11 C0 7.37 0 3.74 0 0 Z " fill="#919191" transform="translate(30,17)"/>
<path d="M0 0 C1.32 0 2.64 0 4 0 C4 2.64 4 5.28 4 8 C2.68 8 1.36 8 0 8 C0 5.36 0 2.72 0 0 Z " fill="#E6E6E6" transform="translate(30,35)"/>
<path d="M0 0 C0.33 0 0.66 0 1 0 C1 1.65 1 3.3 1 5 C2.32 5 3.64 5 5 5 C5 3.35 5 1.7 5 0 C5.33 0 5.66 0 6 0 C6 3.63 6 7.26 6 11 C5.67 11 5.34 11 5 11 C5 9.35 5 7.7 5 6 C3.68 6 2.36 6 1 6 C1 7.65 1 9.3 1 11 C0.67 11 0.34 11 0 11 C0 9.35 0 7.7 0 6 C-1.32 5.67 -2.64 5.34 -4 5 C-2.68 5 -1.36 5 0 5 C0 3.35 0 1.7 0 0 Z " fill="#555555" transform="translate(23,17)"/>
<path d="M0 0 C0.94875 0.04125 1.8975 0.0825 2.875 0.125 C2.875 1.115 2.875 2.105 2.875 3.125 C0.4 2.135 0.4 2.135 -2.125 1.125 C-2.125 2.115 -2.125 3.105 -2.125 4.125 C-3.115 4.125 -4.105 4.125 -5.125 4.125 C-5.455 5.115 -5.785 6.105 -6.125 7.125 C-6.125 6.135 -6.125 5.145 -6.125 4.125 C-8.435 4.125 -10.745 4.125 -13.125 4.125 C-13.125 3.795 -13.125 3.465 -13.125 3.125 C-11.84625 3.00125 -10.5675 2.8775 -9.25 2.75 C-5.29616658 2.36737096 -3.85839474 0.15433579 0 0 Z " fill="#7A7A7A" transform="translate(30.125,4.875)"/>
<path d="M0 0 C1.65 0 3.3 0 5 0 C5 1.65 5 3.3 5 5 C3.35 5 1.7 5 0 5 C0 3.35 0 1.7 0 0 Z " fill="#262626" transform="translate(120,15)"/>
<path d="M0 0 C2.31 0 4.62 0 7 0 C7.33 0.99 7.66 1.98 8 3 C3.545 3.495 3.545 3.495 -1 4 C-0.67 2.68 -0.34 1.36 0 0 Z " fill="#BABABA" transform="translate(9,16)"/>
<path d="M0 0 C3.375 -0.1875 3.375 -0.1875 7 0 C7.66 0.99 8.32 1.98 9 3 C4.545 3.495 4.545 3.495 0 4 C0 2.68 0 1.36 0 0 Z " fill="#FCFCFC" transform="translate(18,13)"/>
<path d="M0 0 C2.31 0 4.62 0 7 0 C6.67 1.32 6.34 2.64 6 4 C3.36 3.67 0.72 3.34 -2 3 C-1.34 2.67 -0.68 2.34 0 2 C0 1.34 0 0.68 0 0 Z " fill="#FAFAFA" transform="translate(34,13)"/>
<path d="M0 0 C0.99 0 1.98 0 3 0 C3 2.64 3 5.28 3 8 C2.01 8 1.02 8 0 8 C0 5.36 0 2.72 0 0 Z " fill="#FAFAFA" transform="translate(26,35)"/>
<path d="M0 0 C2.31 0 4.62 0 7 0 C7 0.99 7 1.98 7 3 C4.69 3 2.38 3 0 3 C0 2.01 0 1.02 0 0 Z " fill="#C1C1C1" transform="translate(43,16)"/>
<path d="M0 0 C1.65 0 3.3 0 5 0 C5 1.32 5 2.64 5 4 C3.35 4 1.7 4 0 4 C0 2.68 0 1.36 0 0 Z " fill="#A0A0A0" transform="translate(11,21)"/>
<path d="M0 0 C0.33 0 0.66 0 1 0 C1 1.65 1 3.3 1 5 C2.32 5.33 3.64 5.66 5 6 C3.68 6 2.36 6 1 6 C1 7.65 1 9.3 1 11 C0.67 11 0.34 11 0 11 C0 9.35 0 7.7 0 6 C-1.32 5.67 -2.64 5.34 -4 5 C-2.68 5 -1.36 5 0 5 C0 3.35 0 1.7 0 0 Z " fill="#525252" transform="translate(35,17)"/>
<path d="M0 0 C1.98 0 3.96 0 6 0 C6 0.99 6 1.98 6 3 C4.02 3 2.04 3 0 3 C0 2.01 0 1.02 0 0 Z " fill="#F0F0F0" transform="translate(43,37)"/>
<path d="M0 0 C0.99 0 1.98 0 3 0 C3 1.98 3 3.96 3 6 C2.01 6 1.02 6 0 6 C0 4.02 0 2.04 0 0 Z " fill="#D9D9D9" transform="translate(12,26)"/>
<path d="M0 0 C2.625 -0.1875 2.625 -0.1875 5 0 C4.67 0.99 4.34 1.98 4 3 C2.02 3 0.04 3 -2 3 C-1.34 2.01 -0.68 1.02 0 0 Z " fill="#E7E7E7" transform="translate(89,27)"/>
</svg>
